<svg version="1.1" id="Layer_1" xmlns="http://www.w3.org/2000/svg" xmlns:xlink="http://www.w3.org/1999/xlink" x="0px" y="0px"
	 width="100%" viewBox="0 0 287 64" enable-background="new 0 0 287 64" xml:space="preserve">
<path fill="#000000" opacity="1.000000" stroke="none" 
	d="
M1.000000,8.000000 
	C1.000000,5.668149 1.000000,3.336298 1.000000,1.003335 
	C96.604408,1.002223 192.208817,1.002223 287.906616,1.002223 
	C287.906616,22.257160 287.906616,43.514870 287.906616,64.886292 
	C192.333420,64.886292 96.666733,64.886292 1.000000,64.886292 
	C1.000000,50.585815 1.000000,36.261566 1.317220,21.341274 
	C2.412440,21.192732 3.190439,21.640230 4.081043,22.353006 
	C4.783251,23.100330 5.372856,23.582375 5.971604,24.294369 
	C5.980748,24.524319 5.927001,24.981430 5.590418,25.149742 
	C4.504704,27.013153 3.231413,28.671427 3.109226,30.410572 
	C2.799462,34.819603 3.206265,39.276531 2.950039,43.692455 
	C2.688251,48.204239 4.818404,50.301819 9.410954,50.897400 
	C10.876325,50.915745 11.944152,50.875763 13.424757,50.903763 
	C15.229221,50.925983 16.620909,50.880226 18.426300,50.895351 
	C20.230249,50.916729 21.620493,50.877224 23.407974,50.899220 
	C24.873163,50.918602 25.941120,50.876488 27.406013,50.901062 
	C28.871487,50.922375 29.940020,50.877003 31.391582,50.895615 
	C33.191616,50.675411 34.608624,50.391224 36.368244,49.941002 
	C37.644463,49.150219 39.399807,48.506886 39.386162,47.903553 
	C39.227753,40.898174 38.867268,33.894009 38.348183,26.905279 
	C38.295624,26.197706 36.859871,25.592871 36.080643,24.955650 
	C36.095276,24.970942 36.111439,24.931402 36.142410,24.675985 
	C36.450039,24.224483 36.726700,24.028399 37.289055,23.822910 
	C38.062443,23.245705 38.550125,22.677906 39.357338,21.904037 
	C40.086437,20.663795 40.460518,19.613855 40.911835,18.598236 
	C42.685173,14.607646 43.305691,10.832355 38.907631,7.597799 
	C36.852772,6.827055 34.937687,6.357530 32.874542,5.574808 
	C31.140533,5.145305 29.554583,5.029000 27.616169,4.967358 
	C25.473251,6.669509 23.682798,8.316997 21.686913,9.960049 
	C21.481478,9.955613 21.075794,9.887708 20.952122,9.632580 
	C20.257511,8.899395 19.686577,8.421338 18.949007,7.620254 
	C16.966120,6.487438 15.149864,5.677649 12.285654,4.400621 
	C12.285654,7.219854 11.566763,9.633777 12.413673,10.479267 
	C15.593543,13.653804 13.885024,16.699596 12.634222,19.797443 
	C11.254454,19.127895 10.183208,18.530136 8.950906,17.615910 
	C8.759640,15.168155 8.670410,13.035553 8.717734,10.905986 
	C8.756192,9.175416 8.958417,7.448485 9.088015,5.719941 
	C7.379927,6.110638 5.671839,6.501335 3.663655,7.045865 
	C2.575706,7.466465 1.787853,7.733232 1.000000,8.000000 
M45.304035,29.973717 
	C44.873875,30.037775 44.443718,30.101835 43.286674,30.341818 
	C39.647671,34.446434 40.056690,42.589211 44.540112,45.093777 
	C45.011047,45.432560 45.481983,45.771339 46.179420,46.546200 
	C46.768742,46.405594 47.358063,46.264992 48.019852,46.780388 
	C49.018761,47.466053 50.017666,48.151718 51.780830,48.665524 
	C52.514671,47.905609 53.860363,47.164764 53.884735,46.382736 
	C54.066063,40.565357 54.130974,34.731693 53.807671,28.926792 
	C53.765907,28.176943 51.289433,27.562693 49.349705,26.986309 
	C48.882000,27.286009 48.414295,27.585711 47.421421,28.129198 
	C46.931221,28.713173 46.441021,29.297150 45.304035,29.973717 
M84.531303,36.973667 
	C82.881599,39.266434 81.231895,41.559200 79.403229,44.100697 
	C78.135803,36.780220 76.960663,29.992729 75.537086,21.770330 
	C72.351593,23.140997 67.884140,23.721796 67.310211,25.534994 
	C64.313629,35.002144 62.306103,44.782356 59.884235,54.742790 
	C62.322983,54.742790 64.558243,54.742790 66.587303,54.742790 
	C68.224838,48.207958 69.806061,41.897858 71.541069,34.974075 
	C72.578842,42.126358 73.508827,48.535744 74.530876,55.579674 
	C84.581940,53.964481 84.473564,43.020527 91.399475,38.405842 
	C89.965286,43.956036 88.580017,49.316879 87.123024,54.955292 
	C90.122253,54.610062 93.803604,56.621784 94.933853,52.102879 
	C97.328308,42.529442 99.523056,32.906063 101.756729,23.484440 
	C96.053101,21.553856 92.323517,23.516432 89.803467,28.612335 
	C88.459648,31.329708 86.596207,33.790115 84.531303,36.973667 
M199.448639,40.960609 
	C200.835037,44.024349 202.451859,47.008099 203.550171,50.171844 
	C204.959152,54.230442 207.294067,56.074440 211.771805,54.649300 
	C214.425491,44.263550 217.102234,33.787540 219.763351,23.372719 
	C214.627716,21.820753 212.172791,23.508167 211.469772,28.846851 
	C210.887634,33.267307 209.275146,37.552074 207.843018,42.934822 
	C204.935043,36.333122 202.767288,30.806984 200.019150,25.586353 
	C199.306992,24.233442 196.839401,23.451542 195.056717,23.166325 
	C194.184692,23.026810 192.377075,24.456318 192.111679,25.468895 
	C189.588486,35.095715 187.305634,44.785522 184.883850,54.744259 
	C187.180664,54.744259 189.280777,54.744259 191.729996,54.744259 
	C193.326645,48.578270 194.969055,42.235554 196.913757,34.725361 
	C197.933319,37.404415 198.481033,38.843666 199.448639,40.960609 
M218.001205,48.129978 
	C219.980576,50.419304 221.674896,54.271095 223.994705,54.694275 
	C230.065598,55.801739 236.607224,55.911774 239.992096,48.735046 
	C237.302109,46.494442 235.021683,46.585419 232.193100,48.795116 
	C230.943573,49.771263 228.283493,49.437355 226.458038,48.958160 
	C225.626007,48.739746 225.264923,46.727245 224.436676,44.999546 
	C229.770325,44.999546 234.079956,45.137894 238.370422,44.912033 
	C239.596954,44.847462 241.825745,43.662842 241.791473,43.102043 
	C241.580231,39.645737 241.769302,35.642372 240.060211,32.935261 
	C238.019974,29.703669 233.895432,29.493063 229.940506,30.472574 
	C222.443100,32.329445 218.343399,39.340500 218.001205,48.129978 
M161.330704,43.140938 
	C160.674622,49.429520 162.364365,53.808743 165.882874,54.938560 
	C172.198563,56.966572 178.969681,54.509071 182.962830,48.690468 
	C180.353699,46.603333 178.089355,46.493668 175.244293,48.763935 
	C174.003845,49.753788 171.341003,49.447311 169.507843,48.991203 
	C168.664474,48.781361 168.263123,46.794880 167.348389,44.999908 
	C172.547394,44.999908 176.684311,45.073380 180.815720,44.954861 
	C182.045197,44.919590 183.688232,44.735661 184.403763,43.948761 
	C187.067078,41.019810 184.340561,32.566162 180.544876,30.982256 
	C172.492722,27.622164 163.175125,33.849869 161.330704,43.140938 
M114.697968,54.816650 
	C117.403008,52.387058 120.671272,50.349369 122.692810,47.444172 
	C126.589172,41.844631 125.590141,34.998528 121.121552,31.630480 
	C116.629524,28.244772 108.430580,29.805098 104.211205,35.453636 
	C101.024757,39.719372 98.655090,44.481789 100.729691,50.277428 
	C102.913078,56.376972 107.917747,54.849937 112.365288,54.996964 
	C112.864349,55.013462 113.364685,54.991673 114.697968,54.816650 
M135.989471,43.930862 
	C135.491623,39.753296 134.993774,35.575726 134.471313,31.191631 
	C132.540634,31.191631 130.466904,31.191631 127.780266,31.191631 
	C128.660812,39.273766 129.515488,47.118290 130.368301,54.945808 
	C133.964462,54.910542 137.375290,55.984821 139.575668,51.979378 
	C143.428619,44.965641 147.666565,38.163406 151.825760,31.133059 
	C149.258453,31.133059 146.784058,31.133059 144.807297,31.133059 
	C141.818573,35.847832 139.016693,40.267868 135.989471,43.930862 
M248.316284,30.961725 
	C247.211594,31.867693 245.236740,32.759129 245.221298,33.683289 
	C245.201782,34.852486 246.776947,36.048309 247.781113,37.388515 
	C246.960464,40.240479 246.022049,43.457531 245.120285,46.684814 
	C244.990280,47.150089 245.044083,47.665287 245.000046,48.156231 
	C244.518906,53.518600 245.836914,54.971241 251.218124,54.999130 
	C252.357346,55.005035 253.496628,54.999989 254.606491,54.999989 
	C255.064713,52.903336 255.454132,51.121410 255.928207,48.952168 
	C254.485138,49.349350 253.413254,49.644371 251.590073,50.146172 
	C252.511826,45.539066 253.205414,41.602577 254.159805,37.730370 
	C254.333847,37.024330 255.575485,36.585171 256.318054,36.014690 
	C257.546936,35.070587 258.770752,34.119888 259.996704,33.171978 
	C258.822601,32.069641 257.648499,30.967300 256.378906,29.775335 
	C256.555542,28.675348 256.821747,27.017286 257.057526,25.548851 
	C251.434464,23.229923 250.031433,26.590723 248.316284,30.961725 
M150.618469,54.996803 
	C152.404633,54.282585 155.432846,53.938339 155.773819,52.793640 
	C157.865891,45.770142 159.349976,38.565536 161.094788,31.174294 
	C158.601013,31.174294 156.491486,31.174294 154.523560,31.174294 
	C153.399399,35.365807 152.125946,39.341297 151.302841,43.407936 
	C150.534012,47.206493 150.243240,51.101814 150.618469,54.996803 
z"/>
<path fill="#99141B" opacity="1.000000" stroke="none" 
	d="
M3.968439,22.087729 
	C3.190439,21.640230 2.412440,21.192732 1.317220,20.872616 
	C1.000000,16.975456 1.000000,12.950912 1.000000,8.463183 
	C1.787853,7.733232 2.575706,7.466465 3.675642,7.521088 
	C3.981297,12.590895 3.974868,17.339312 3.968439,22.087729 
z"/>
<path fill="#FFFFFF" opacity="1.000000" stroke="none" 
	d="
M84.749298,36.670082 
	C86.596207,33.790115 88.459648,31.329708 89.803467,28.612335 
	C92.323517,23.516432 96.053101,21.553856 101.756729,23.484440 
	C99.523056,32.906063 97.328308,42.529442 94.933853,52.102879 
	C93.803604,56.621784 90.122253,54.610062 87.123024,54.955292 
	C88.580017,49.316879 89.965286,43.956036 91.399475,38.405842 
	C84.473564,43.020527 84.581940,53.964481 74.530876,55.579674 
	C73.508827,48.535744 72.578842,42.126358 71.541069,34.974075 
	C69.806061,41.897858 68.224838,48.207958 66.587303,54.742790 
	C64.558243,54.742790 62.322983,54.742790 59.884235,54.742790 
	C62.306103,44.782356 64.313629,35.002144 67.310211,25.534994 
	C67.884140,23.721796 72.351593,23.140997 75.537086,21.770330 
	C76.960663,29.992729 78.135803,36.780220 79.403229,44.100697 
	C81.231895,41.559200 82.881599,39.266434 84.749298,36.670082 
z"/>
<path fill="#FFFFFF" opacity="1.000000" stroke="none" 
	d="
M199.238708,40.621765 
	C198.481033,38.843666 197.933319,37.404415 196.913757,34.725361 
	C194.969055,42.235554 193.326645,48.578270 191.729996,54.744259 
	C189.280777,54.744259 187.180664,54.744259 184.883850,54.744259 
	C187.305634,44.785522 189.588486,35.095715 192.111679,25.468895 
	C192.377075,24.456318 194.184692,23.026810 195.056717,23.166325 
	C196.839401,23.451542 199.306992,24.233442 200.019150,25.586353 
	C202.767288,30.806984 204.935043,36.333122 207.843018,42.934822 
	C209.275146,37.552074 210.887634,33.267307 211.469772,28.846851 
	C212.172791,23.508167 214.627716,21.820753 219.763351,23.372719 
	C217.102234,33.787540 214.425491,44.263550 211.771805,54.649300 
	C207.294067,56.074440 204.959152,54.230442 203.550171,50.171844 
	C202.451859,47.008099 200.835037,44.024349 199.238708,40.621765 
z"/>
<path fill="#FFFFFF" opacity="1.000000" stroke="none" 
	d="
M218.000641,47.707108 
	C218.343399,39.340500 222.443100,32.329445 229.940506,30.472574 
	C233.895432,29.493063 238.019974,29.703669 240.060211,32.935261 
	C241.769302,35.642372 241.580231,39.645737 241.791473,43.102043 
	C241.825745,43.662842 239.596954,44.847462 238.370422,44.912033 
	C234.079956,45.137894 229.770325,44.999546 224.436676,44.999546 
	C225.264923,46.727245 225.626007,48.739746 226.458038,48.958160 
	C228.283493,49.437355 230.943573,49.771263 232.193100,48.795116 
	C235.021683,46.585419 237.302109,46.494442 239.992096,48.735046 
	C236.607224,55.911774 230.065598,55.801739 223.994705,54.694275 
	C221.674896,54.271095 219.980576,50.419304 218.000641,47.707108 
M235.969604,37.849331 
	C232.075729,34.616486 229.680908,35.122356 225.948242,40.669453 
	C229.740677,39.934490 232.864624,39.329075 235.969604,37.849331 
z"/>
<path fill="#FFFFFF" opacity="1.000000" stroke="none" 
	d="
M161.627136,42.846531 
	C163.175125,33.849869 172.492722,27.622164 180.544876,30.982256 
	C184.340561,32.566162 187.067078,41.019810 184.403763,43.948761 
	C183.688232,44.735661 182.045197,44.919590 180.815720,44.954861 
	C176.684311,45.073380 172.547394,44.999908 167.348389,44.999908 
	C168.263123,46.794880 168.664474,48.781361 169.507843,48.991203 
	C171.341003,49.447311 174.003845,49.753788 175.244293,48.763935 
	C178.089355,46.493668 180.353699,46.603333 182.962830,48.690468 
	C178.969681,54.509071 172.198563,56.966572 165.882874,54.938560 
	C162.364365,53.808743 160.674622,49.429520 161.627136,42.846531 
M177.225510,36.037163 
	C173.818497,35.659130 170.781204,36.010056 169.427689,39.789810 
	C172.664276,39.789810 175.772964,39.789810 179.441055,39.789810 
	C178.835632,38.424076 178.401260,37.444206 177.225510,36.037163 
z"/>
<path fill="#FFFFFF" opacity="1.000000" stroke="none" 
	d="
M114.281197,54.902145 
	C113.364685,54.991673 112.864349,55.013462 112.365288,54.996964 
	C107.917747,54.849937 102.913078,56.376972 100.729691,50.277428 
	C98.655090,44.481789 101.024757,39.719372 104.211205,35.453636 
	C108.430580,29.805098 116.629524,28.244772 121.121552,31.630480 
	C125.590141,34.998528 126.589172,41.844631 122.692810,47.444172 
	C120.671272,50.349369 117.403008,52.387058 114.281197,54.902145 
M109.726608,49.963848 
	C114.550606,49.460773 119.180405,43.247028 117.951782,38.808598 
	C117.103050,35.742546 114.858757,35.372784 112.253296,36.308121 
	C107.629150,37.968155 105.816223,45.588474 109.726608,49.963848 
z"/>
<path fill="#FFFFFF" opacity="1.000000" stroke="none" 
	d="
M136.102142,44.309383 
	C139.016693,40.267868 141.818573,35.847832 144.807297,31.133059 
	C146.784058,31.133059 149.258453,31.133059 151.825760,31.133059 
	C147.666565,38.163406 143.428619,44.965641 139.575668,51.979378 
	C137.375290,55.984821 133.964462,54.910542 130.368301,54.945808 
	C129.515488,47.118290 128.660812,39.273766 127.780266,31.191631 
	C130.466904,31.191631 132.540634,31.191631 134.471313,31.191631 
	C134.993774,35.575726 135.491623,39.753296 136.102142,44.309383 
z"/>
<path fill="#FFFFFF" opacity="1.000000" stroke="none" 
	d="
M248.656708,30.724442 
	C250.031433,26.590723 251.434464,23.229923 257.057526,25.548851 
	C256.821747,27.017286 256.555542,28.675348 256.378906,29.775335 
	C257.648499,30.967300 258.822601,32.069641 259.996704,33.171978 
	C258.770752,34.119888 257.546936,35.070587 256.318054,36.014690 
	C255.575485,36.585171 254.333847,37.024330 254.159805,37.730370 
	C253.205414,41.602577 252.511826,45.539066 251.590073,50.146172 
	C253.413254,49.644371 254.485138,49.349350 255.928207,48.952168 
	C255.454132,51.121410 255.064713,52.903336 254.606491,54.999989 
	C253.496628,54.999989 252.357346,55.005035 251.218124,54.999130 
	C245.836914,54.971241 244.518906,53.518600 245.000046,48.156231 
	C245.044083,47.665287 244.990280,47.150089 245.120285,46.684814 
	C246.022049,43.457531 246.960464,40.240479 247.781113,37.388515 
	C246.776947,36.048309 245.201782,34.852486 245.221298,33.683289 
	C245.236740,32.759129 247.211594,31.867693 248.656708,30.724442 
z"/>
<path fill="#FFFFFF" opacity="1.000000" stroke="none" 
	d="
M150.180267,54.975674 
	C150.243240,51.101814 150.534012,47.206493 151.302841,43.407936 
	C152.125946,39.341297 153.399399,35.365807 154.523560,31.174294 
	C156.491486,31.174294 158.601013,31.174294 161.094788,31.174294 
	C159.349976,38.565536 157.865891,45.770142 155.773819,52.793640 
	C155.432846,53.938339 152.404633,54.282585 150.180267,54.975674 
z"/>
<path fill="#9A141B" opacity="1.000000" stroke="none" 
	d="
M9.013410,50.839069 
	C4.818404,50.301819 2.688251,48.204239 2.950039,43.692455 
	C3.206265,39.276531 2.799462,34.819603 3.109226,30.410572 
	C3.231413,28.671427 4.504704,27.013153 5.917531,25.175474 
	C7.386036,25.357201 8.190844,25.681505 8.996996,26.474092 
	C9.003362,34.907940 9.008386,42.873505 9.013410,50.839069 
z"/>
<path fill="#B0171F" opacity="1.000000" stroke="none" 
	d="
M18.012596,50.834469 
	C16.620909,50.880226 15.229221,50.925983 13.420749,50.447689 
	C13.002666,41.282169 13.001370,32.640705 13.000161,23.748522 
	C13.000459,23.330656 13.000669,23.163507 13.296524,23.119751 
	C14.392993,23.500414 15.193818,23.757685 16.043486,24.403008 
	C17.100046,27.546164 18.107765,30.301268 19.051186,33.442390 
	C19.000595,36.510891 19.014301,39.193367 18.874432,42.253605 
	C18.484770,45.365734 18.248682,48.100101 18.012596,50.834469 
z"/>
<path fill="#CE1F28" opacity="1.000000" stroke="none" 
	d="
M31.008554,50.831627 
	C29.940020,50.877003 28.871487,50.922375 27.403030,50.458809 
	C26.653532,45.930752 26.303955,41.911644 25.969669,37.695221 
	C25.984959,37.497913 25.956553,37.103008 25.970398,36.644829 
	C26.325285,32.464302 26.666325,28.741959 27.337393,25.012720 
	C28.107498,24.999142 28.547575,24.992455 29.323788,24.991882 
	C30.107660,25.000469 30.555397,25.002941 31.002209,25.469509 
	C31.003706,34.232948 31.006130,42.532288 31.008554,50.831627 
z"/>
<path fill="#DF2630" opacity="1.000000" stroke="none" 
	d="
M36.066013,24.940357 
	C36.859871,25.592871 38.295624,26.197706 38.348183,26.905279 
	C38.867268,33.894009 39.227753,40.898174 39.386162,47.903553 
	C39.399807,48.506886 37.644463,49.150219 36.351818,49.510281 
	C36.017193,41.143845 36.041603,33.042103 36.066013,24.940357 
z"/>
<path fill="#A6151D" opacity="1.000000" stroke="none" 
	d="
M13.000073,23.999237 
	C13.001370,32.640705 13.002666,41.282169 13.007971,50.379707 
	C11.944152,50.875763 10.876325,50.915745 9.410954,50.897400 
	C9.008386,42.873505 9.003362,34.907940 9.323487,26.444164 
	C10.765781,25.297049 11.882928,24.648144 13.000073,23.999237 
z"/>
<path fill="#D7232C" opacity="1.000000" stroke="none" 
	d="
M36.080643,24.955650 
	C36.041603,33.042103 36.017193,41.143845 36.009205,49.676315 
	C34.608624,50.391224 33.191616,50.675411 31.391582,50.895615 
	C31.006130,42.532288 31.003706,34.232948 31.334068,25.467144 
	C32.109356,24.998428 32.551857,24.996178 33.383923,24.995235 
	C34.552803,24.974827 35.332123,24.953115 36.111439,24.931402 
	C36.111439,24.931402 36.095276,24.970942 36.080643,24.955650 
z"/>
<path fill="#A8161E" opacity="1.000000" stroke="none" 
	d="
M28.987650,24.985769 
	C28.547575,24.992455 28.107498,24.999142 27.055969,24.887394 
	C25.629597,24.192993 24.814680,23.617023 24.003574,22.613094 
	C24.336695,19.161474 24.967249,16.124702 24.836517,13.121062 
	C24.788952,12.028226 22.926668,11.014374 21.892345,9.964485 
	C23.682798,8.316997 25.473251,6.669509 27.669479,5.367982 
	C28.391293,7.846632 28.707331,9.979321 28.878124,12.428584 
	C28.829218,14.460908 28.925556,16.176657 29.013620,18.338278 
	C28.999447,20.851357 28.993547,22.918564 28.987650,24.985769 
z"/>
<path fill="#CF2029" opacity="1.000000" stroke="none" 
	d="
M15.994643,24.014956 
	C15.193818,23.757685 14.392993,23.500414 13.294262,22.728909 
	C12.978485,21.432858 12.960615,20.651045 12.942745,19.869230 
	C13.885024,16.699596 15.593543,13.653804 12.413673,10.479267 
	C11.566763,9.633777 12.285654,7.219854 12.285654,4.400621 
	C15.149864,5.677649 16.966120,6.487438 18.593357,7.811783 
	C17.955122,11.981298 17.296724,15.631145 17.207199,19.294893 
	C17.185455,20.184811 19.036566,21.120495 19.858545,22.334629 
	C18.458603,23.094400 17.226624,23.554678 15.994643,24.014956 
z"/>
<path fill="#A6161E" opacity="1.000000" stroke="none" 
	d="
M4.081042,22.353006 
	C3.974868,17.339312 3.981297,12.590895 3.975738,7.367255 
	C5.671839,6.501335 7.379927,6.110638 9.088015,5.719941 
	C8.958417,7.448485 8.756192,9.175416 8.717734,10.905986 
	C8.670410,13.035553 8.759640,15.168155 8.629383,17.781288 
	C7.633431,20.196896 6.797946,22.130657 5.962461,24.064421 
	C5.372856,23.582375 4.783251,23.100330 4.081042,22.353006 
z"/>
<path fill="#DA252E" opacity="1.000000" stroke="none" 
	d="
M49.940773,26.885630 
	C51.289433,27.562693 53.765907,28.176943 53.807671,28.926792 
	C54.130974,34.731693 54.066063,40.565357 53.884735,46.382736 
	C53.860363,47.164764 52.514671,47.905609 51.392944,48.294426 
	C50.650299,40.910759 50.295536,33.898193 49.940773,26.885630 
z"/>
<path fill="#D1212A" opacity="1.000000" stroke="none" 
	d="
M39.037811,22.110107 
	C38.550125,22.677906 38.062443,23.245705 37.239143,23.464741 
	C35.896942,21.065655 34.890350,19.015335 34.035492,16.642296 
	C33.799839,14.491329 33.412460,12.663077 33.017197,10.423232 
	C33.013744,8.637094 33.018173,7.262550 33.022602,5.888006 
	C34.937687,6.357530 36.852772,6.827055 38.740562,7.983328 
	C38.821449,13.150087 38.929630,17.630098 39.037811,22.110107 
z"/>
<path fill="#CB1F27" opacity="1.000000" stroke="none" 
	d="
M49.645241,26.935970 
	C50.295536,33.898193 50.650299,40.910759 51.010818,48.380356 
	C50.017666,48.151718 49.018761,47.466053 48.000072,45.975578 
	C47.969059,39.408985 47.957825,33.647198 47.946594,27.885410 
	C48.414295,27.585711 48.882000,27.286009 49.645241,26.935970 
z"/>
<path fill="#D7242E" opacity="1.000000" stroke="none" 
	d="
M20.026506,22.035133 
	C19.036566,21.120495 17.185455,20.184811 17.207199,19.294893 
	C17.296724,15.631145 17.955122,11.981298 18.759991,8.134809 
	C19.686577,8.421338 20.257511,8.899395 20.929504,10.080381 
	C21.021873,14.524147 21.013184,18.264984 20.759941,22.011341 
	C20.515390,22.016865 20.026506,22.035133 20.026506,22.035133 
z"/>
<path fill="#C61B25" opacity="1.000000" stroke="none" 
	d="
M25.954378,37.892532 
	C26.303955,41.911644 26.653532,45.930752 27.006092,50.392120 
	C25.941120,50.876488 24.873163,50.918602 23.404343,50.472721 
	C22.672493,46.712994 22.341509,43.441265 22.337639,40.096420 
	C23.761293,39.313049 24.857836,38.602791 25.954378,37.892532 
z"/>
<path fill="#9C141B" opacity="1.000000" stroke="none" 
	d="
M21.004492,22.005819 
	C21.013184,18.264984 21.021873,14.524147 21.053179,10.335509 
	C21.075794,9.887708 21.481478,9.955613 21.686913,9.960049 
	C22.926668,11.014374 24.788952,12.028226 24.836517,13.121062 
	C24.967249,16.124702 24.336695,19.161474 23.630636,22.603817 
	C22.509315,22.991974 21.764746,22.961452 21.022062,22.699554 
	C21.023949,22.468180 21.004492,22.005819 21.004492,22.005819 
z"/>
<path fill="#BC1921" opacity="1.000000" stroke="none" 
	d="
M22.010525,40.169533 
	C22.341509,43.441265 22.672493,46.712994 23.007107,50.411224 
	C21.620493,50.877224 20.230249,50.916729 18.426300,50.895351 
	C18.248682,48.100101 18.484770,45.365734 19.169472,42.208405 
	C20.415567,41.246803 21.213047,40.708168 22.010525,40.169533 
z"/>
<path fill="#DA262F" opacity="1.000000" stroke="none" 
	d="
M39.357338,21.904037 
	C38.929630,17.630098 38.821449,13.150087 38.880341,8.284548 
	C43.305691,10.832355 42.685173,14.607646 40.911835,18.598236 
	C40.460518,19.613855 40.086437,20.663795 39.357338,21.904037 
z"/>
<path fill="#B51820" opacity="1.000000" stroke="none" 
	d="
M5.971604,24.294369 
	C6.797946,22.130657 7.633431,20.196896 8.790440,18.097755 
	C10.183208,18.530136 11.254454,19.127895 12.634222,19.797443 
	C12.960615,20.651045 12.978485,21.432858 12.998617,22.605515 
	C13.000669,23.163507 13.000459,23.330656 13.000161,23.748522 
	C11.882928,24.648144 10.765781,25.297049 9.322144,25.975883 
	C8.190844,25.681505 7.386036,25.357201 6.254114,25.007162 
	C5.927001,24.981430 5.980748,24.524319 5.971604,24.294369 
z"/>
<path fill="#A0131B" opacity="1.000000" stroke="none" 
	d="
M44.014717,44.835670 
	C40.056690,42.589211 39.647671,34.446434 43.645798,30.706661 
	C44.008186,35.659561 44.011452,40.247616 44.014717,44.835670 
z"/>
<path fill="#B81821" opacity="1.000000" stroke="none" 
	d="
M47.684006,28.007305 
	C47.957825,33.647198 47.969059,39.408985 47.963837,45.647583 
	C47.358063,46.264992 46.768742,46.405594 46.081551,45.852730 
	C45.972729,40.066547 45.961773,34.973835 45.950821,29.881123 
	C46.441021,29.297150 46.931221,28.713173 47.684006,28.007305 
z"/>
<path fill="#AC161E" opacity="1.000000" stroke="none" 
	d="
M45.627426,29.927420 
	C45.961773,34.973835 45.972729,40.066547 45.968300,45.634689 
	C45.481983,45.771339 45.011047,45.432560 44.277412,44.964722 
	C44.011452,40.247616 44.008186,35.659561 44.009239,30.618700 
	C44.443718,30.101835 44.873875,30.037775 45.627426,29.927420 
z"/>
<path fill="#B91821" opacity="1.000000" stroke="none" 
	d="
M32.874542,5.574808 
	C33.018173,7.262550 33.013744,8.637094 32.664204,10.490225 
	C31.220518,11.349878 30.121944,11.730945 29.023369,12.112009 
	C28.707331,9.979321 28.391293,7.846632 28.021942,5.313319 
	C29.554583,5.029000 31.140533,5.145305 32.874542,5.574808 
z"/>
<path fill="#CA1E27" opacity="1.000000" stroke="none" 
	d="
M33.883762,16.965014 
	C34.890350,19.015335 35.896942,21.065655 36.953445,23.474144 
	C36.726700,24.028399 36.450039,24.224483 36.142410,24.675985 
	C35.332123,24.953115 34.552803,24.974827 33.385963,24.553314 
	C32.983334,22.033182 32.968231,19.956272 33.034912,17.662308 
	C33.300156,17.169800 33.555843,17.009720 33.883762,16.965014 
z"/>
<path fill="#000000" opacity="1.000000" stroke="none" 
	d="
M235.979095,38.286499 
	C232.864624,39.329075 229.740677,39.934490 225.948242,40.669453 
	C229.680908,35.122356 232.075729,34.616486 235.979095,38.286499 
z"/>
<path fill="#000000" opacity="1.000000" stroke="none" 
	d="
M177.596191,36.250748 
	C178.401260,37.444206 178.835632,38.424076 179.441055,39.789810 
	C175.772964,39.789810 172.664276,39.789810 169.427689,39.789810 
	C170.781204,36.010056 173.818497,35.659130 177.596191,36.250748 
z"/>
<path fill="#000000" opacity="1.000000" stroke="none" 
	d="
M109.384567,49.757919 
	C105.816223,45.588474 107.629150,37.968155 112.253296,36.308121 
	C114.858757,35.372784 117.103050,35.742546 117.951782,38.808598 
	C119.180405,43.247028 114.550606,49.460773 109.384567,49.757919 
z"/>
<path fill="#B91821" opacity="1.000000" stroke="none" 
	d="
M20.759941,22.011341 
	C21.004492,22.005819 21.023949,22.468180 21.014782,23.167248 
	C20.991049,27.284208 20.976486,30.702101 20.710579,34.016739 
	C20.011318,33.627781 19.563400,33.342075 19.115482,33.056370 
	C18.107765,30.301268 17.100046,27.546164 16.043486,24.403008 
	C17.226624,23.554678 18.458603,23.094400 19.858545,22.334629 
	C20.026506,22.035133 20.515390,22.016865 20.759941,22.011341 
z"/>
<path fill="#000000" opacity="1.000000" stroke="none" 
	d="
M19.051186,33.442390 
	C19.563400,33.342075 20.011318,33.627781 20.881258,34.296856 
	C22.854370,35.487820 24.405462,36.295414 25.956553,37.103008 
	C25.956553,37.103008 25.984959,37.497913 25.969669,37.695221 
	C24.857836,38.602791 23.761293,39.313049 22.337639,40.096420 
	C21.213047,40.708168 20.415567,41.246803 19.323048,41.830643 
	C19.014301,39.193367 19.000595,36.510891 19.051186,33.442390 
z"/>
<path fill="#C21B24" opacity="1.000000" stroke="none" 
	d="
M25.970398,36.644829 
	C24.405462,36.295414 22.854370,35.487820 21.132599,34.400108 
	C20.976486,30.702101 20.991049,27.284208 21.012894,23.398624 
	C21.764746,22.961452 22.509315,22.991974 23.626823,23.031775 
	C24.814680,23.617023 25.629597,24.192993 26.725937,24.894287 
	C26.666325,28.741959 26.325285,32.464302 25.970398,36.644829 
z"/>
<path fill="#BC1922" opacity="1.000000" stroke="none" 
	d="
M32.953125,17.879364 
	C32.968231,19.956272 32.983334,22.033182 32.996399,24.552010 
	C32.551857,24.996178 32.109356,24.998428 31.334993,25.003046 
	C30.555397,25.002941 30.107660,25.000469 29.323788,24.991882 
	C28.993547,22.918564 28.999447,20.851357 29.405125,18.384521 
	C30.854311,17.949715 31.903719,17.914539 32.953125,17.879364 
z"/>
<path fill="#000000" opacity="1.000000" stroke="none" 
	d="
M33.034912,17.662308 
	C31.903719,17.914539 30.854311,17.949715 29.413399,17.938648 
	C28.925556,16.176657 28.829218,14.460908 28.878124,12.428585 
	C30.121944,11.730945 31.220518,11.349878 32.672085,10.901819 
	C33.412460,12.663077 33.799839,14.491329 34.035492,16.642296 
	C33.555843,17.009720 33.300156,17.169800 33.034912,17.662308 
z"/>
</svg>