<svg version="1.1" id="Layer_1" xmlns="http://www.w3.org/2000/svg" xmlns:xlink="http://www.w3.org/1999/xlink" x="0px" y="0px"
	 width="100%" viewBox="0 0 287 64" enable-background="new 0 0 287 64" xml:space="preserve">
<path fill="#000000" opacity="1.000000" stroke="none" 
	d="
M1.000000,9.000000 
	C1.000000,6.335025 1.000000,3.670050 1.000000,1.003806 
	C96.604286,1.002537 192.208572,1.002537 287.906433,1.002537 
	C287.906433,22.257063 287.906433,43.514675 287.906433,64.886139 
	C192.333420,64.886139 96.666733,64.886139 1.000000,64.886139 
	C1.000000,50.585823 1.000000,36.261570 1.319058,21.347166 
	C2.410798,21.213413 3.183479,21.669807 4.051859,22.348465 
	C4.348904,22.842464 4.613890,23.018314 5.046469,23.346973 
	C5.397555,24.053902 5.644690,24.512136 5.560661,25.146935 
	C4.492183,26.538851 3.169729,27.729912 3.118098,28.973726 
	C2.885449,34.578358 2.818250,40.209423 3.147999,45.804047 
	C3.230282,47.200073 5.011172,48.495979 6.235812,49.916050 
	C6.746906,50.122189 7.028342,50.260735 7.634375,50.606178 
	C8.978566,50.814507 9.992963,50.826485 11.380621,50.896557 
	C12.505892,50.917454 13.257900,50.880257 14.407358,50.905563 
	C15.873246,50.923656 16.941687,50.879242 18.423744,50.897789 
	C20.228632,50.922962 21.619902,50.885185 23.408611,50.907402 
	C24.873877,50.921791 25.941698,50.876190 27.405842,50.899509 
	C28.870131,50.924339 29.938101,50.880249 31.378428,50.899551 
	C32.501892,50.919067 33.253002,50.875191 34.342560,50.886749 
	C35.820698,50.312542 36.960396,49.682903 38.455513,48.861427 
	C38.940861,41.619801 39.141243,34.569630 39.102226,27.520781 
	C39.097862,26.732187 37.735390,25.951111 36.790150,25.091309 
	C36.577568,25.016068 36.133797,24.935596 36.096561,24.718355 
	C36.059326,24.501114 36.102707,24.062437 36.417053,24.027008 
	C37.503613,23.363464 38.275826,22.735352 39.380207,21.931787 
	C43.230637,16.515789 43.043941,12.278822 39.037903,7.550882 
	C36.764305,6.837650 34.556553,6.517346 32.988586,6.289864 
	C33.376652,10.590658 33.660347,13.734754 33.613518,17.050175 
	C31.865425,17.535540 30.447853,17.849575 28.705162,17.920734 
	C28.818615,14.124020 29.257187,10.570185 29.834305,5.893673 
	C28.126467,6.188691 26.036627,6.549697 23.654160,7.057599 
	C22.554510,8.187885 21.747490,9.171277 20.675827,10.003916 
	C19.975185,9.217382 19.539185,8.581602 18.935860,7.616556 
	C16.592855,7.080933 14.417174,6.874574 12.241492,6.668215 
	C12.064811,7.116780 11.888129,7.565344 11.711448,8.013909 
	C16.877489,12.383122 14.603724,17.151756 12.707790,21.920471 
	C12.494823,21.952269 12.064892,21.927315 11.867829,21.625385 
	C6.572566,19.242870 7.897383,15.080256 8.428386,11.207973 
	C8.626858,9.760637 9.001637,8.337479 9.296027,6.903297 
	C7.622035,6.844720 5.948042,6.786144 4.099253,6.879446 
	C3.786868,7.433628 3.649281,7.835931 3.278460,8.175447 
	C2.363483,8.408442 1.681742,8.704221 1.000000,9.000000 
M50.207558,48.635151 
	C50.818302,48.463760 51.429043,48.292370 52.881336,47.947441 
	C53.102531,41.350525 53.351589,34.754147 53.478592,28.155413 
	C53.486572,27.740965 52.540768,27.308159 51.796768,26.357828 
	C51.182720,26.534151 50.568668,26.710474 49.362400,26.985104 
	C48.895523,27.285471 48.428642,27.585838 47.364613,28.183008 
	C45.923431,29.199362 44.482250,30.215714 42.596420,31.193298 
	C42.496731,31.303379 42.397045,31.413460 42.297356,31.523539 
	C42.528828,31.687883 42.760300,31.852230 43.068645,32.668053 
	C43.123314,33.101284 43.177982,33.534512 43.063095,34.822220 
	C43.118744,36.558582 43.174393,38.294945 43.117947,40.759605 
	C43.152401,41.493591 43.186855,42.227577 43.184124,43.415207 
	C43.483673,43.291439 43.783218,43.167675 44.689411,43.333233 
	C45.779938,44.594719 46.870464,45.856209 48.242119,47.645885 
	C48.812965,47.801502 49.383812,47.957119 50.207558,48.635151 
M63.528641,54.999977 
	C65.224068,54.931713 66.703972,55.538662 67.174217,52.556973 
	C68.089272,46.754860 69.974945,41.105824 71.550407,35.039837 
	C72.557732,41.942883 73.507828,48.453789 74.554779,55.628460 
	C84.521149,53.869541 84.552521,43.106701 91.444679,38.285885 
	C89.964378,43.994392 88.577980,49.340794 87.114052,54.986145 
	C90.159363,54.597237 93.820412,56.612694 94.945930,52.058849 
	C97.310577,42.491508 99.531609,32.888672 101.748108,23.567369 
	C95.551590,21.048761 92.289330,24.354815 89.461601,28.989729 
	C86.393166,34.019180 83.058449,38.886166 79.486458,44.366146 
	C78.137367,36.744831 76.923805,29.889112 75.640076,22.637053 
	C72.628700,24.256512 68.362930,20.455708 67.016739,25.681377 
	C64.735237,34.537735 62.633217,43.441303 60.261017,52.272717 
	C59.572247,54.836929 60.632973,55.153667 63.528641,54.999977 
M200.033905,42.373230 
	C201.245178,44.993160 202.704254,47.530624 203.610001,50.252235 
	C204.990051,54.399143 207.411316,56.084538 211.698822,54.647125 
	C213.125488,49.392887 214.613510,44.154327 215.961426,38.879959 
	C217.286423,33.695286 218.469162,28.474257 219.714401,23.268883 
	C215.106339,22.314884 212.179764,22.861008 211.640564,28.513000 
	C211.209610,33.030350 209.319000,37.408447 207.811996,42.792454 
	C204.907471,36.240452 202.692535,30.737406 199.980103,25.491596 
	C199.324951,24.224512 197.084152,23.379858 195.459747,23.154816 
	C194.422668,23.011143 192.387802,24.157324 192.148636,25.076166 
	C189.603928,34.852524 187.329483,44.699226 184.922852,54.768658 
	C187.394180,54.768658 189.651520,54.768658 191.762390,54.768658 
	C193.417755,48.296352 195.007538,42.080513 196.797104,35.083515 
	C198.167465,37.900227 199.064026,39.743042 200.033905,42.373230 
M238.444519,47.926270 
	C236.288391,48.285725 234.142212,48.734215 231.973022,48.976994 
	C230.176697,49.178043 228.227615,49.545170 226.590866,49.042351 
	C225.672531,48.760231 225.250931,46.861111 224.224777,44.999920 
	C229.469406,44.999920 233.605698,45.069626 237.737045,44.957378 
	C238.973953,44.923771 240.609100,44.777180 241.352463,44.002056 
	C244.041946,41.197739 241.385696,32.518547 237.608856,30.995615 
	C232.362900,28.880297 227.696838,30.130325 223.795395,33.795670 
	C219.290741,38.027718 216.971405,43.449993 218.386597,49.600998 
	C218.854019,51.632523 221.133560,54.238182 223.053818,54.723171 
	C226.323746,55.549038 230.294617,55.767967 233.346115,54.603901 
	C235.785217,53.673447 237.295578,50.308353 238.444519,47.926270 
M185.000000,39.525223 
	C185.391602,35.645950 184.730957,32.536213 180.426758,30.935244 
	C175.275925,29.019360 170.813644,30.196995 167.014633,33.577293 
	C162.393295,37.689266 160.135101,43.149757 161.295792,49.290306 
	C161.687225,51.361225 163.774826,53.852367 165.730316,54.749062 
	C171.797653,57.531242 179.560715,54.428482 182.892059,48.494350 
	C179.225998,46.764675 179.327576,46.995049 175.072876,48.871017 
	C173.428192,49.596195 171.109909,49.362190 169.294571,48.858498 
	C168.544281,48.650318 168.309036,46.585873 167.698837,44.999947 
	C172.615952,44.999947 176.603119,44.803776 180.561386,45.057911 
	C184.156265,45.288712 185.443207,43.805790 185.000000,39.525223 
M124.999908,38.678749 
	C124.875961,34.082710 121.994240,31.085363 118.097397,30.239737 
	C112.727272,29.074402 107.810173,30.968599 104.115906,35.384743 
	C99.469086,40.939583 98.617332,48.655693 102.271202,52.749561 
	C105.052055,55.865295 113.469673,56.195774 118.189484,52.897655 
	C122.704872,49.742386 124.292130,44.773396 124.999908,38.678749 
M129.999802,49.652061 
	C129.999802,51.407543 129.999802,53.163025 129.999802,54.891659 
	C137.650009,55.102581 137.706100,55.135899 139.789642,51.627850 
	C143.798431,44.878265 147.736923,38.086929 151.784470,31.176500 
	C149.327393,31.176500 146.874847,31.176500 144.455017,31.176500 
	C141.872482,35.776810 139.311859,40.338131 136.751221,44.899448 
	C136.359619,44.835762 135.968002,44.772079 135.576385,44.708393 
	C135.287628,40.248058 134.998856,35.787720 134.701920,31.201057 
	C132.504379,31.201057 130.431290,31.201057 127.630737,31.201057 
	C128.444000,37.225136 129.220703,42.978397 129.999802,49.652061 
M245.001633,51.165508 
	C246.437744,57.210518 251.148834,54.289600 254.606232,55.008949 
	C255.068970,52.897343 255.460236,51.111889 255.934708,48.946743 
	C254.479538,49.346390 253.408264,49.640606 251.588058,50.140511 
	C252.512253,45.530502 253.207199,41.595470 254.162964,37.724842 
	C254.336975,37.020149 255.580933,36.584457 256.322937,36.014130 
	C257.550964,35.070248 258.772461,34.117867 259.996704,33.169075 
	C258.822021,32.067909 257.647339,30.966743 256.378418,29.777220 
	C256.555481,28.675333 256.821838,27.017698 257.116180,25.185846 
	C253.353577,24.994957 249.639099,23.769888 249.797867,29.321430 
	C249.813187,29.857418 248.346024,30.371326 247.672302,31.007032 
	C246.730453,31.895758 245.150360,32.923573 245.192276,33.829433 
	C245.242752,34.919754 246.708130,35.944584 247.535095,36.965816 
	C246.732605,41.186798 245.866348,45.743198 245.001633,51.165508 
M158.037399,42.720139 
	C159.100693,39.021809 160.164001,35.323483 161.329285,31.270424 
	C158.685867,31.270424 156.455063,31.270424 154.413391,31.270424 
	C153.378723,35.358894 152.357819,39.241447 151.419464,43.143860 
	C150.501053,46.963425 149.666794,50.803234 148.801025,54.610268 
	C153.456818,55.679760 156.213135,55.031956 156.482773,50.141655 
	C156.604675,47.931194 157.472885,45.761883 158.037399,42.720139 
M156.018784,24.002161 
	C156.018784,25.248276 156.018784,26.494390 156.018784,28.886063 
	C158.815689,27.818245 161.151672,27.359861 162.810425,26.046276 
	C163.354279,25.615587 162.140274,22.965149 161.730133,21.329819 
	C159.912537,21.951132 158.094940,22.572445 156.018784,24.002161 
z"/>
<path fill="#9B141B" opacity="1.000000" stroke="none" 
	d="
M1.000000,9.460636 
	C1.681742,8.704221 2.363483,8.408442 3.426686,8.703789 
	C3.857484,13.572011 3.906822,17.849108 3.956160,22.126204 
	C3.183479,21.669807 2.410798,21.213413 1.319058,20.878510 
	C1.000000,17.307091 1.000000,13.614182 1.000000,9.460636 
z"/>
<path fill="#FFFFFF" opacity="1.000000" stroke="none" 
	d="
M63.085308,54.999908 
	C60.632973,55.153667 59.572247,54.836929 60.261017,52.272717 
	C62.633217,43.441303 64.735237,34.537735 67.016739,25.681377 
	C68.362930,20.455708 72.628700,24.256512 75.640076,22.637053 
	C76.923805,29.889112 78.137367,36.744831 79.486458,44.366146 
	C83.058449,38.886166 86.393166,34.019180 89.461601,28.989729 
	C92.289330,24.354815 95.551590,21.048761 101.748108,23.567369 
	C99.531609,32.888672 97.310577,42.491508 94.945930,52.058849 
	C93.820412,56.612694 90.159363,54.597237 87.114052,54.986145 
	C88.577980,49.340794 89.964378,43.994392 91.444679,38.285885 
	C84.552521,43.106701 84.521149,53.869541 74.554779,55.628460 
	C73.507828,48.453789 72.557732,41.942883 71.550407,35.039837 
	C69.974945,41.105824 68.089272,46.754860 67.174217,52.556973 
	C66.703972,55.538662 65.224068,54.931713 63.085308,54.999908 
z"/>
<path fill="#FFFFFF" opacity="1.000000" stroke="none" 
	d="
M199.997253,41.979546 
	C199.064026,39.743042 198.167465,37.900227 196.797104,35.083515 
	C195.007538,42.080513 193.417755,48.296352 191.762390,54.768658 
	C189.651520,54.768658 187.394180,54.768658 184.922852,54.768658 
	C187.329483,44.699226 189.603928,34.852524 192.148636,25.076166 
	C192.387802,24.157324 194.422668,23.011143 195.459747,23.154816 
	C197.084152,23.379858 199.324951,24.224512 199.980103,25.491596 
	C202.692535,30.737406 204.907471,36.240452 207.811996,42.792454 
	C209.319000,37.408447 211.209610,33.030350 211.640564,28.513000 
	C212.179764,22.861008 215.106339,22.314884 219.714401,23.268883 
	C218.469162,28.474257 217.286423,33.695286 215.961426,38.879959 
	C214.613510,44.154327 213.125488,49.392887 211.692017,54.645332 
	C207.411316,56.084538 204.990051,54.399143 203.610001,50.252235 
	C202.704254,47.530624 201.245178,44.993160 199.997253,41.979546 
z"/>
<path fill="#FFFFFF" opacity="1.000000" stroke="none" 
	d="
M238.831329,47.975071 
	C237.295578,50.308353 235.785217,53.673447 233.346115,54.603901 
	C230.294617,55.767967 226.323746,55.549038 223.053818,54.723171 
	C221.133560,54.238182 218.854019,51.632523 218.386597,49.600998 
	C216.971405,43.449993 219.290741,38.027718 223.795395,33.795670 
	C227.696838,30.130325 232.362900,28.880297 237.608856,30.995615 
	C241.385696,32.518547 244.041946,41.197739 241.352463,44.002056 
	C240.609100,44.777180 238.973953,44.923771 237.737045,44.957378 
	C233.605698,45.069626 229.469406,44.999920 224.224777,44.999920 
	C225.250931,46.861111 225.672531,48.760231 226.590866,49.042351 
	C228.227615,49.545170 230.176697,49.178043 231.973022,48.976994 
	C234.142212,48.734215 236.288391,48.285725 238.831329,47.975071 
M233.329056,39.999851 
	C234.213791,39.587166 235.098526,39.174484 235.983261,38.761787 
	C235.243576,37.847610 234.641846,36.334175 233.739502,36.126419 
	C230.417969,35.361679 227.753220,36.435837 226.283463,39.999992 
	C228.490860,39.999992 230.471313,39.999992 233.329056,39.999851 
z"/>
<path fill="#FFFFFF" opacity="1.000000" stroke="none" 
	d="
M185.000000,39.971909 
	C185.443207,43.805790 184.156265,45.288712 180.561386,45.057911 
	C176.603119,44.803776 172.615952,44.999947 167.698837,44.999947 
	C168.309036,46.585873 168.544281,48.650318 169.294571,48.858498 
	C171.109909,49.362190 173.428192,49.596195 175.072876,48.871017 
	C179.327576,46.995049 179.225998,46.764675 182.892059,48.494350 
	C179.560715,54.428482 171.797653,57.531242 165.730316,54.749062 
	C163.774826,53.852367 161.687225,51.361225 161.295792,49.290306 
	C160.135101,43.149757 162.393295,37.689266 167.014633,33.577293 
	C170.813644,30.196995 175.275925,29.019360 180.426758,30.935244 
	C184.730957,32.536213 185.391602,35.645950 185.000000,39.971909 
M174.701508,36.000080 
	C172.809723,36.985798 170.917923,37.971519 169.026138,38.957237 
	C169.219910,39.224937 169.413681,39.492641 169.607452,39.760342 
	C172.701950,39.760342 175.796448,39.760342 178.890945,39.760342 
	C179.118210,39.304504 179.345474,38.848663 179.572739,38.392826 
	C178.227982,37.595291 176.883240,36.797752 174.701508,36.000080 
z"/>
<path fill="#FFFFFF" opacity="1.000000" stroke="none" 
	d="
M124.999863,39.095211 
	C124.292130,44.773396 122.704872,49.742386 118.189484,52.897655 
	C113.469673,56.195774 105.052055,55.865295 102.271202,52.749561 
	C98.617332,48.655693 99.469086,40.939583 104.115906,35.384743 
	C107.810173,30.968599 112.727272,29.074402 118.097397,30.239737 
	C121.994240,31.085363 124.875961,34.082710 124.999863,39.095211 
M113.347389,49.101864 
	C114.862190,46.837254 116.990852,44.743660 117.685402,42.250534 
	C118.184845,40.457821 116.770500,38.131947 116.209862,36.043900 
	C114.118507,36.810921 111.716217,37.174374 110.033058,38.471191 
	C108.658318,39.530380 107.867058,41.616573 107.299995,43.400890 
	C105.918320,47.748482 107.925941,49.925797 113.347389,49.101864 
z"/>
<path fill="#FFFFFF" opacity="1.000000" stroke="none" 
	d="
M129.998596,49.191860 
	C129.220703,42.978397 128.444000,37.225136 127.630737,31.201057 
	C130.431290,31.201057 132.504379,31.201057 134.701920,31.201057 
	C134.998856,35.787720 135.287628,40.248058 135.576385,44.708393 
	C135.968002,44.772079 136.359619,44.835762 136.751221,44.899448 
	C139.311859,40.338131 141.872482,35.776810 144.455017,31.176500 
	C146.874847,31.176500 149.327393,31.176500 151.784470,31.176500 
	C147.736923,38.086929 143.798431,44.878265 139.789642,51.627850 
	C137.706100,55.135899 137.650009,55.102581 129.999802,54.891659 
	C129.999802,53.163025 129.999802,51.407543 129.998596,49.191860 
z"/>
<path fill="#FFFFFF" opacity="1.000000" stroke="none" 
	d="
M245.000854,50.732552 
	C245.866348,45.743198 246.732605,41.186798 247.535095,36.965816 
	C246.708130,35.944584 245.242752,34.919754 245.192276,33.829433 
	C245.150360,32.923573 246.730453,31.895758 247.672302,31.007032 
	C248.346024,30.371326 249.813187,29.857418 249.797867,29.321430 
	C249.639099,23.769888 253.353577,24.994957 257.116180,25.185846 
	C256.821838,27.017698 256.555481,28.675333 256.378418,29.777220 
	C257.647339,30.966743 258.822021,32.067909 259.996704,33.169067 
	C258.772461,34.117867 257.550964,35.070248 256.322937,36.014130 
	C255.580933,36.584457 254.336975,37.020149 254.162964,37.724842 
	C253.207199,41.595470 252.512253,45.530502 251.588058,50.140511 
	C253.408264,49.640606 254.479538,49.346390 255.934708,48.946743 
	C255.460236,51.111889 255.068970,52.897343 254.606232,55.008949 
	C251.148834,54.289600 246.437744,57.210518 245.000854,50.732552 
z"/>
<path fill="#FFFFFF" opacity="1.000000" stroke="none" 
	d="
M158.019958,43.147018 
	C157.472885,45.761883 156.604675,47.931194 156.482773,50.141655 
	C156.213135,55.031956 153.456818,55.679760 148.801025,54.610268 
	C149.666794,50.803234 150.501053,46.963425 151.419464,43.143860 
	C152.357819,39.241447 153.378723,35.358894 154.413391,31.270424 
	C156.455063,31.270424 158.685867,31.270424 161.329285,31.270424 
	C160.164001,35.323483 159.100693,39.021809 158.019958,43.147018 
z"/>
<path fill="#B1171F" opacity="1.000000" stroke="none" 
	d="
M18.010126,50.834831 
	C16.941687,50.879242 15.873246,50.923656 14.403873,50.448826 
	C13.998559,40.965626 13.994178,32.001663 14.310987,23.048248 
	C15.419634,23.379797 16.207090,23.700804 17.045696,24.415497 
	C17.768530,27.557390 18.440212,30.305601 19.071827,33.496834 
	C19.057226,36.608582 19.082697,39.277309 18.802284,42.214500 
	C18.334307,45.266926 18.172216,48.050877 18.010126,50.834831 
z"/>
<path fill="#CF1F29" opacity="1.000000" stroke="none" 
	d="
M31.006071,50.836159 
	C29.938101,50.880249 28.870131,50.924339 27.402834,50.442886 
	C27.331461,41.270363 27.659412,32.623386 28.098385,23.759911 
	C28.411421,23.272934 28.674726,23.091257 29.118595,23.266109 
	C29.826672,24.025351 30.415472,24.516869 31.002857,25.476509 
	C31.002985,34.241810 31.004528,42.538986 31.006071,50.836159 
z"/>
<path fill="#C61C25" opacity="1.000000" stroke="none" 
	d="
M27.987366,23.976408 
	C27.659412,32.623386 27.331461,41.270363 27.006516,50.373962 
	C25.941698,50.876190 24.873877,50.921791 23.404583,50.480141 
	C22.673161,46.717407 22.343208,43.441936 22.312866,40.016197 
	C23.674448,39.150036 24.736420,38.434139 26.012756,37.573738 
	C24.841532,36.624889 23.870720,35.838406 23.210140,34.772999 
	C23.681206,30.989586 23.842037,27.485092 24.374245,23.986340 
	C25.487244,23.983059 26.228865,23.974039 27.224672,23.971035 
	C27.648359,23.976837 27.817862,23.976624 27.987366,23.976408 
z"/>
<path fill="#97141B" opacity="1.000000" stroke="none" 
	d="
M6.011349,49.837902 
	C5.011172,48.495979 3.230282,47.200073 3.147999,45.804047 
	C2.818250,40.209423 2.885449,34.578358 3.118098,28.973726 
	C3.169729,27.729912 4.492183,26.538851 5.836905,25.157381 
	C6.628407,24.996481 6.812503,25.001699 6.997858,25.474758 
	C6.669861,33.907700 6.340605,41.872803 6.011349,49.837902 
z"/>
<path fill="#DF2630" opacity="1.000000" stroke="none" 
	d="
M37.002731,25.166550 
	C37.735390,25.951111 39.097862,26.732187 39.102226,27.520781 
	C39.141243,34.569630 38.940861,41.619801 38.100082,48.666702 
	C37.260399,40.831398 37.131565,32.998974 37.002731,25.166550 
z"/>
<path fill="#A9161E" opacity="1.000000" stroke="none" 
	d="
M13.989798,23.037704 
	C13.994178,32.001663 13.998559,40.965626 14.006425,50.386322 
	C13.257900,50.880257 12.505892,50.917454 11.378117,50.440445 
	C11.316297,40.634487 11.630242,31.342737 11.974115,22.019825 
	C12.004044,21.988667 12.064892,21.927315 12.064892,21.927315 
	C12.064892,21.927315 12.494823,21.952269 12.828449,22.161255 
	C13.437983,22.592730 13.713890,22.815216 13.989798,23.037704 
z"/>
<path fill="#D6222C" opacity="1.000000" stroke="none" 
	d="
M31.378428,50.899551 
	C31.004528,42.538986 31.002985,34.241810 31.377380,25.474026 
	C32.502655,25.003565 33.251987,25.003714 34.000824,25.472271 
	C34.001591,34.237560 34.002850,42.534435 34.004112,50.831314 
	C33.253002,50.875191 32.501892,50.919067 31.378428,50.899551 
z"/>
<path fill="#D2212A" opacity="1.000000" stroke="none" 
	d="
M14.310987,23.048248 
	C13.713890,22.815216 13.437983,22.592730 13.041416,22.129457 
	C14.603724,17.151756 16.877489,12.383122 11.711448,8.013909 
	C11.888129,7.565344 12.064811,7.116780 12.241492,6.668215 
	C14.417174,6.874574 16.592855,7.080933 18.623890,7.897988 
	C18.653145,13.010343 18.827045,17.512001 18.880217,22.279686 
	C18.171173,23.037745 17.582861,23.529778 16.994547,24.021811 
	C16.207090,23.700804 15.419634,23.379797 14.310987,23.048248 
z"/>
<path fill="#D1212A" opacity="1.000000" stroke="none" 
	d="
M33.944038,16.878849 
	C33.660347,13.734754 33.376652,10.590658 32.988586,6.289864 
	C34.556553,6.517346 36.764305,6.837650 38.725876,7.832755 
	C38.669144,13.040783 38.858589,17.574009 39.048035,22.107235 
	C38.275826,22.735352 37.503613,23.363464 36.124676,23.786301 
	C34.993317,21.346966 34.468678,19.112907 33.944038,16.878849 
z"/>
<path fill="#A7161E" opacity="1.000000" stroke="none" 
	d="
M28.098385,23.759911 
	C27.817862,23.976624 27.648359,23.976837 26.993187,23.663952 
	C26.005108,21.571699 25.291077,19.821289 25.044718,18.007360 
	C24.544830,14.326662 24.297955,10.611600 23.946785,6.910704 
	C26.036627,6.549697 28.126467,6.188691 29.834305,5.893673 
	C29.257187,10.570185 28.818615,14.124020 28.695965,18.322723 
	C29.007698,20.311190 29.003508,21.654787 28.999317,22.998384 
	C28.674726,23.091257 28.411421,23.272934 28.098385,23.759911 
z"/>
<path fill="#C01A23" opacity="1.000000" stroke="none" 
	d="
M43.221313,42.961563 
	C43.186855,42.227577 43.152401,41.493591 43.517303,40.297466 
	C43.688656,37.879467 43.460651,35.923603 43.232651,33.967743 
	C43.177982,33.534512 43.123314,33.101284 43.048664,32.146557 
	C43.028683,31.625059 43.041073,31.232067 43.041073,31.232067 
	C44.482250,30.215714 45.923431,29.199362 47.675514,28.504063 
	C48.326485,32.883385 48.666546,36.941650 49.005104,41.374935 
	C49.004967,42.499996 49.006340,43.250038 48.738029,44.215237 
	C48.299229,45.326160 48.130108,46.221928 47.960991,47.117695 
	C46.870464,45.856209 45.779938,44.594719 44.171398,43.160164 
	C43.653385,42.987099 43.221313,42.961563 43.221313,42.961563 
z"/>
<path fill="#AA161E" opacity="1.000000" stroke="none" 
	d="
M6.996600,25.006920 
	C6.812503,25.001699 6.628407,24.996481 6.168067,24.980816 
	C5.644690,24.512136 5.397555,24.053902 5.219190,22.957598 
	C5.945441,17.057476 7.531852,11.735018 4.274050,6.727567 
	C5.948042,6.786144 7.622035,6.844720 9.296027,6.903297 
	C9.001637,8.337479 8.626858,9.760637 8.428386,11.207973 
	C7.897383,15.080256 6.572566,19.242870 11.867829,21.625385 
	C12.064892,21.927315 12.004044,21.988667 11.658081,22.046818 
	C10.541400,23.069876 9.770680,24.034784 8.666088,25.000206 
	C7.887011,25.002785 7.441805,25.004852 6.996600,25.006920 
z"/>
<path fill="#9D141C" opacity="1.000000" stroke="none" 
	d="
M23.654158,7.057599 
	C24.297955,10.611600 24.544830,14.326662 25.044718,18.007360 
	C25.291077,19.821289 26.005108,21.571699 26.739002,23.657936 
	C26.228865,23.974039 25.487244,23.983059 24.207096,23.733849 
	C22.784142,22.977831 21.899712,22.480045 21.009430,21.985794 
	C21.003576,21.989328 21.004353,21.999483 21.002460,21.540627 
	C20.980534,17.439404 20.960501,13.797035 20.940468,10.154669 
	C21.747490,9.171277 22.554510,8.187885 23.654158,7.057599 
z"/>
<path fill="#A3151D" opacity="1.000000" stroke="none" 
	d="
M8.999962,24.999695 
	C9.770680,24.034784 10.541400,23.069876 11.628154,22.077976 
	C11.630242,31.342737 11.316297,40.634487 11.004856,50.382351 
	C9.992963,50.826485 8.978566,50.814507 8.043226,50.337395 
	C8.414824,48.307060 8.938010,46.745071 8.959905,45.176086 
	C9.053741,38.451744 8.999944,31.725344 8.999962,24.999695 
z"/>
<path fill="#DA242E" opacity="1.000000" stroke="none" 
	d="
M34.342560,50.886745 
	C34.002850,42.534435 34.001591,34.237560 34.356361,25.465843 
	C35.186195,24.972534 35.659996,24.954065 36.133797,24.935596 
	C36.133797,24.935596 36.577568,25.016068 36.790150,25.091309 
	C37.131565,32.998974 37.260399,40.831398 37.744659,48.858543 
	C36.960396,49.682903 35.820698,50.312542 34.342560,50.886745 
z"/>
<path fill="#9D141C" opacity="1.000000" stroke="none" 
	d="
M8.666089,25.000206 
	C8.999944,31.725344 9.053741,38.451744 8.959905,45.176086 
	C8.938010,46.745071 8.414824,48.307060 7.713432,50.141052 
	C7.028342,50.260735 6.746906,50.122189 6.235812,49.916050 
	C6.340605,41.872803 6.669861,33.907700 6.997858,25.474758 
	C7.441805,25.004852 7.887011,25.002785 8.666089,25.000206 
z"/>
<path fill="#D4222B" opacity="1.000000" stroke="none" 
	d="
M49.007706,44.000080 
	C49.006340,43.250038 49.004967,42.499996 49.299988,41.082283 
	C49.715794,35.905342 49.835205,31.396070 49.954620,26.886799 
	C50.568668,26.710474 51.182720,26.534151 51.905495,27.097523 
	C52.022739,34.598473 52.031261,41.359726 52.039787,48.120979 
	C51.429043,48.292370 50.818302,48.463760 50.094387,47.998768 
	C49.656715,46.241619 49.332211,45.120850 49.007706,44.000080 
z"/>
<path fill="#DB252E" opacity="1.000000" stroke="none" 
	d="
M39.380203,21.931786 
	C38.858589,17.574009 38.669144,13.040783 38.791721,8.225683 
	C43.043941,12.278822 43.230637,16.515789 39.380203,21.931786 
z"/>
<path fill="#BB1821" opacity="1.000000" stroke="none" 
	d="
M22.013256,40.166462 
	C22.343208,43.441936 22.673161,46.717407 23.007141,50.420143 
	C21.619902,50.885185 20.228632,50.922962 18.423744,50.897789 
	C18.172216,48.050877 18.334307,45.266926 19.082922,42.125797 
	C20.450716,41.234570 21.231985,40.700516 22.013256,40.166462 
z"/>
<path fill="#FFFFFF" opacity="1.000000" stroke="none" 
	d="
M156.148071,23.597960 
	C158.094940,22.572445 159.912537,21.951132 161.730133,21.329815 
	C162.140274,22.965149 163.354279,25.615587 162.810425,26.046276 
	C161.151672,27.359861 158.815689,27.818245 156.018784,28.886063 
	C156.018784,26.494390 156.018784,25.248276 156.148071,23.597960 
z"/>
<path fill="#C41B24" opacity="1.000000" stroke="none" 
	d="
M36.096561,24.718355 
	C35.659996,24.954065 35.186195,24.972534 34.356857,24.997433 
	C33.251987,25.003714 32.502655,25.003565 31.378796,25.005901 
	C30.415472,24.516869 29.826672,24.025351 29.118595,23.266109 
	C29.003508,21.654787 29.007698,20.311190 29.021084,18.565601 
	C30.447853,17.849575 31.865425,17.535540 33.613518,17.050175 
	C34.468678,19.112907 34.993317,21.346966 35.810333,23.821730 
	C36.102707,24.062437 36.059326,24.501114 36.096561,24.718355 
z"/>
<path fill="#DE252F" opacity="1.000000" stroke="none" 
	d="
M52.460564,48.034210 
	C52.031261,41.359726 52.022739,34.598473 52.026455,27.360556 
	C52.540768,27.308159 53.486572,27.740965 53.478592,28.155413 
	C53.351589,34.754147 53.102531,41.350525 52.460564,48.034210 
z"/>
<path fill="#DB242E" opacity="1.000000" stroke="none" 
	d="
M20.675827,10.003916 
	C20.960501,13.797035 20.980534,17.439404 20.668491,21.541225 
	C19.891258,22.005005 19.446102,22.009333 19.000946,22.013659 
	C18.827045,17.512001 18.653145,13.010343 18.791214,8.227253 
	C19.539185,8.581602 19.975185,9.217382 20.675827,10.003916 
z"/>
<path fill="#A3151D" opacity="1.000000" stroke="none" 
	d="
M4.099253,6.879446 
	C7.531852,11.735018 5.945441,17.057476 5.115239,22.708904 
	C4.613890,23.018314 4.348904,22.842464 4.051859,22.348465 
	C3.906822,17.849108 3.857484,13.572011 3.659920,8.766574 
	C3.649281,7.835931 3.786868,7.433628 4.099253,6.879446 
z"/>
<path fill="#CA1D27" opacity="1.000000" stroke="none" 
	d="
M49.658508,26.935951 
	C49.835205,31.396070 49.715794,35.905342 49.301498,40.707268 
	C48.666546,36.941650 48.326485,32.883385 47.974091,28.355663 
	C48.428642,27.585838 48.895523,27.285471 49.658508,26.935951 
z"/>
<path fill="#A5151D" opacity="1.000000" stroke="none" 
	d="
M43.147873,34.394981 
	C43.460651,35.923603 43.688656,37.879467 43.573353,39.933319 
	C43.174393,38.294945 43.118744,36.558582 43.147873,34.394981 
z"/>
<path fill="#CA1D27" opacity="1.000000" stroke="none" 
	d="
M48.738026,44.215237 
	C49.332211,45.120850 49.656715,46.241619 49.967941,47.737560 
	C49.383812,47.957119 48.812965,47.801502 48.101555,47.381790 
	C48.130108,46.221928 48.299229,45.326160 48.738026,44.215237 
z"/>
<path fill="#A5151D" opacity="1.000000" stroke="none" 
	d="
M43.202721,43.188385 
	C43.221313,42.961563 43.653385,42.987099 43.868076,43.015503 
	C43.783218,43.167675 43.483673,43.291439 43.202721,43.188385 
z"/>
<path fill="#A5151D" opacity="1.000000" stroke="none" 
	d="
M42.818748,31.212683 
	C43.041073,31.232067 43.028683,31.625059 43.010227,31.820816 
	C42.760300,31.852230 42.528828,31.687883 42.297356,31.523540 
	C42.397045,31.413460 42.496731,31.303379 42.818748,31.212683 
z"/>
<path fill="#000000" opacity="1.000000" stroke="none" 
	d="
M232.890411,39.999924 
	C230.471313,39.999992 228.490860,39.999992 226.283463,39.999992 
	C227.753220,36.435837 230.417969,35.361679 233.739502,36.126419 
	C234.641846,36.334175 235.243576,37.847610 235.983261,38.761795 
	C235.098526,39.174484 234.213791,39.587166 232.890411,39.999924 
z"/>
<path fill="#000000" opacity="1.000000" stroke="none" 
	d="
M175.119995,36.000149 
	C176.883240,36.797752 178.227982,37.595291 179.572739,38.392826 
	C179.345474,38.848663 179.118210,39.304504 178.890945,39.760342 
	C175.796448,39.760342 172.701950,39.760342 169.607452,39.760342 
	C169.413681,39.492641 169.219910,39.224937 169.026138,38.957237 
	C170.917923,37.971519 172.809723,36.985798 175.119995,36.000149 
z"/>
<path fill="#000000" opacity="1.000000" stroke="none" 
	d="
M113.090439,49.400581 
	C107.925941,49.925797 105.918320,47.748482 107.299995,43.400890 
	C107.867058,41.616573 108.658318,39.530380 110.033058,38.471191 
	C111.716217,37.174374 114.118507,36.810921 116.209862,36.043900 
	C116.770500,38.131947 118.184845,40.457821 117.685402,42.250534 
	C116.990852,44.743660 114.862190,46.837254 113.090439,49.400581 
z"/>
<path fill="#BA1821" opacity="1.000000" stroke="none" 
	d="
M18.880219,22.279686 
	C19.446102,22.009333 19.891258,22.005005 20.670383,22.000080 
	C21.004353,21.999483 21.003576,21.989328 21.004004,22.449596 
	C20.989368,26.649214 20.974304,30.388561 20.708399,34.021400 
	C20.009003,33.627861 19.560450,33.340836 19.111897,33.053810 
	C18.440212,30.305601 17.768530,27.557390 17.045696,24.415497 
	C17.582861,23.529778 18.171173,23.037745 18.880219,22.279686 
z"/>
<path fill="#000000" opacity="1.000000" stroke="none" 
	d="
M19.071827,33.496834 
	C19.560450,33.340836 20.009003,33.627861 20.844963,34.278183 
	C21.788216,34.778290 22.344063,34.915104 22.899908,35.051918 
	C23.870720,35.838406 24.841532,36.624889 26.012756,37.573738 
	C24.736420,38.434139 23.674448,39.150036 22.312866,40.016197 
	C21.231985,40.700516 20.450716,41.234570 19.388809,41.857330 
	C19.082697,39.277309 19.057226,36.608582 19.071827,33.496834 
z"/>
<path fill="#C21A23" opacity="1.000000" stroke="none" 
	d="
M23.210140,34.772999 
	C22.344063,34.915104 21.788216,34.778290 21.095806,34.384693 
	C20.974304,30.388561 20.989368,26.649214 21.009857,22.446064 
	C21.899712,22.480045 22.784142,22.977831 23.835720,23.728107 
	C23.842037,27.485092 23.681206,30.989586 23.210140,34.772999 
z"/>
</svg>